<svg xmlns="http://www.w3.org/2000/svg" height="20" viewBox="0 -960 960 960" width="20" fill="none">
<symbol id="home-land">
<path fill="currentColor" d="M400-106v-228l56-160q5-11 14.5-18.5T494-520h292q14 0 24 7.5t14 18.5l56 160v228q0 11-7.5 18.5T854-80h-28q-11 0-18.5-7.5T800-106v-34H480v34q0 11-7.5 18.5T454-80h-28q-11 0-18.5-7.5T400-106Zm80-274h320l-28-80H508l-28 80Zm-20 60v120-120Zm60 100q17 0 28.5-11.5T560-260q0-17-11.5-28.5T520-300q-17 0-28.5 11.5T480-260q0 17 11.5 28.5T520-220Zm240 0q17 0 28.5-11.5T800-260q0-17-11.5-28.5T760-300q-17 0-28.5 11.5T720-260q0 17 11.5 28.5T760-220ZM240-400v-80h80v80h-80Zm200-240v-80h80v80h-80ZM240-240v-80h80v80h-80Zm0 160v-80h80v80h-80ZM80-80v-560h200v-240h400v280h-80v-200H360v240H160v480H80Zm380-120h360v-120H460v120Z"/>
</symbol>
<symbol id="family-disputes">
<path fill="currentColor" d="M720-720q-33 0-56.5-23.5T640-800q0-33 23.5-56.5T720-880q33 0 56.5 23.5T800-800q0 33-23.5 56.5T720-720ZM680-80v-320q0-40-20.5-72T607-522l35-103q8-25 29.5-40t48.5-15q27 0 48.5 15t29.5 40l102 305H800v240H680ZM500-500q-25 0-42.5-17.5T440-560q0-25 17.5-42.5T500-620q25 0 42.5 17.5T560-560q0 25-17.5 42.5T500-500ZM220-720q-33 0-56.5-23.5T140-800q0-33 23.5-56.5T220-880q33 0 56.5 23.5T300-800q0 33-23.5 56.5T220-720ZM140-80v-280H80v-240q0-33 23.5-56.5T160-680h120q33 0 56.5 23.5T360-600v240h-60v280H140Zm300 0v-160h-40v-160q0-25 17.5-42.5T460-460h80q25 0 42.5 17.5T600-400v160h-40v160H440Z"/>
</symbol>
<symbol id="car-crash">
<path fill="currentColor" d="M160-240v-200 200ZM80-440l84-240q6-18 21.5-29t34.5-11h183q-3 20-3 40t3 40H234l-42 120h259q17 24 38 44.5t47 35.5H160v200h560v-163q21-3 41-9t39-15v307q0 17-11.5 28.5T760-80h-40q-17 0-28.5-11.5T680-120v-40H200v40q0 17-11.5 28.5T160-80h-40q-17 0-28.5-11.5T80-120v-320Zm540 160q25 0 42.5-17.5T680-340q0-25-17.5-42.5T620-400q-25 0-42.5 17.5T560-340q0 25 17.5 42.5T620-280Zm-360 0q25 0 42.5-17.5T320-340q0-25-17.5-42.5T260-400q-25 0-42.5 17.5T200-340q0 25 17.5 42.5T260-280Zm420-200q-83 0-141.5-58.5T480-680q0-82 58-141t142-59q83 0 141.5 58.5T880-680q0 83-58.5 141.5T680-480Zm-20-160h40v-160h-40v160Zm20 80q8 0 14-6t6-14q0-8-6-14t-14-6q-8 0-14 6t-6 14q0 8 6 14t14 6Z"/>
</symbol>
<symbol id="labor-disputes">
<path fill="currentColor" d="M480-600 340-740l140-140 140 140-140 140ZM40-160v-160q0-34 23.5-57t56.5-23h131q20 0 38 10t29 27q29 39 71.5 61t90.5 22q49 0 91.5-22t70.5-61q13-17 30.5-27t36.5-10h131q34 0 57 23t23 57v160H640v-91q-35 25-75.5 38T480-200q-43 0-84-13.5T320-252v92H40Zm120-280q-50 0-85-35t-35-85q0-51 35-85.5t85-34.5q51 0 85.5 34.5T280-560q0 50-34.5 85T160-440Zm640 0q-50 0-85-35t-35-85q0-51 35-85.5t85-34.5q51 0 85.5 34.5T920-560q0 50-34.5 85T800-440Z"/>
</symbol>
</svg>